<?xml version="1.0" standalone="no"?>
<!DOCTYPE svg PUBLIC "-//W3C//DTD SVG 1.1//EN" "http://www.w3.org/Graphics/SVG/1.1/DTD/svg11.dtd" >
<!--
2013-9-30: Created.
-->
<svg>
<metadata>
Created by iconfont
</metadata>
<defs>

<font id="iconfont" horiz-adv-x="1024" >
  <font-face
    font-family="iconfont"
    font-weight="500"
    font-stretch="normal"
    units-per-em="1024"
    ascent="896"
    descent="-128"
  />
    <missing-glyph />
    
    <glyph glyph-name="x" unicode="x" horiz-adv-x="1001"
d="M281 543q-27 -1 -53 -1h-83q-18 0 -36.5 -6t-32.5 -18.5t-23 -32t-9 -45.5v-76h912v41q0 16 -0.5 30t-0.5 18q0 13 -5 29t-17 29.5t-31.5 22.5t-49.5 9h-133v-97h-438v97zM955 310v-52q0 -23 0.5 -52t0.5 -58t-10.5 -47.5t-26 -30t-33 -16t-31.5 -4.5q-14 -1 -29.5 -0.5
t-29.5 0.5h-32l-45 128h-439l-44 -128h-29h-34q-20 0 -45 1q-25 0 -41 9.5t-25.5 23t-13.5 29.5t-4 30v167h911zM163 247q-12 0 -21 -8.5t-9 -21.5t9 -21.5t21 -8.5q13 0 22 8.5t9 21.5t-9 21.5t-22 8.5zM316 123q-8 -26 -14 -48q-5 -19 -10.5 -37t-7.5 -25t-3 -15t1 -14.5
t9.5 -10.5t21.5 -4h37h67h81h80h64h36q23 0 34 12t2 38q-5 13 -9.5 30.5t-9.5 34.5q-5 19 -11 39h-368zM336 498v228q0 11 2.5 23t10 21.5t20.5 15.5t34 6h188q31 0 51.5 -14.5t20.5 -52.5v-227h-327z" />
    

    
    <glyph glyph-name="delete" unicode="&#59311;" d="M848.28571429 628.33333333H723.14285714v83.57142857A41.71428571 41.71428571 0 0 1 681.42857143 753.61904762h-334.28571429a41.71428571 41.71428571 0 0 1-41.71428571-41.71428572v-83.57142857H180.14285714a41.71428571 41.71428571 0 0 1 0-83.57142857h41.85714286V43.61904761999995a41.71428571 41.71428571 0 0 1 41.71428571-41.71428572H764.85714286a41.85714286 41.85714286 0 0 1 8.42857143 0.85714286l4 0.85714286 3.85714285 1.42857142a41.71428571 41.71428571 0 0 1 25.57142857 38.42857143V544.76190476h41.71428572a41.71428571 41.71428571 0 1 1 0 83.57142857zM388.85714286 670.04761904h250.71428571v-41.71428571h-250.71428571V670.04761904z m167.14285714-584.71428571h-83.42857143V544.76190476h83.42857143v-459.42857143zM389.14285714 544.76190476v-459.42857143h-83.71428571V544.76190476h83.71428571z m334 0v-459.42857143h-83.71428571V544.76190476h83.57142857z"  horiz-adv-x="1024" />

    
    <glyph glyph-name="verify" unicode="&#59312;" d="M748.83218544 766.49663693H536.22305669v-191.81230537c74.02211943-18.74933938 130.5085291-80.10781154 142.29394608-156.75739783 1.9473802-9.49231746 2.92055429-19.28185034 2.92055429-29.31390275 0-89.99125624-61.84557521-164.98345377-145.21450037-186.06717258v-191.81333737h212.60809674c77.91584782 0 141.70364324 63.7423875 141.70364324 141.70467523V624.78886571c0 77.96125573-63.79089141 141.70777123-141.70364324 141.70777122z m0 0M604.88704258 388.61303098c0 64.03547493-51.8135228 115.99657344-115.80255783 115.99657345V766.49663693H276.48051599c-77.91275183 0-141.70880322-63.74135551-141.70880322-141.70777122v-472.35270144c0-77.96125573 63.7960514-141.70364324 141.70880322-141.70364324h212.60396876V272.61955352999996c63.99006702 0 115.80255783 51.96109851 115.80255783 115.99244545z m0 0"  horiz-adv-x="1024" />

    
    <glyph glyph-name="statistical" unicode="&#59313;" d="M404.13928572 425.67195766c0 84.87232143 0.04285714 169.74375-0.04285714 254.61607142-0.01428571 13.92053571 3.01339285 26.74553572 11.82142857 37.79107144 9.62500001 12.06964286 22.19910714 18.16875 37.67767857 18.16964286 39.34464285 0 78.68928572-0.09464285 118.03303571 0.03214285 28.02946429 0.09107143 45.32321428-21.66607143 48.63392857-43.34285715 0.59017857-3.86964286 0.83482142-7.82767857 0.83571429-11.74553571 0.04017857-170.44642858 0.02499999-340.89196428 0.04642856-511.33928571 0.00178571-17.79464285-5.61696429-33.08392857-19.62142857-44.64285714-7.94821429-6.55892857-17.14196428-10.07410714-27.51160714-10.08303572-40.89107143-0.03392857-81.78125-0.17857143-122.66964286 0.05-22.22321428 0.12321428-41.17053571 16.97678572-45.82857143 40.38839286-1.05982143 5.32410714-1.31607143 10.88214285-1.32053571 16.33303572-0.07767857 84.59196428-0.05357143 169.18214286-0.05357142 253.77321428zM343.45535715 310.7460648c0-46.78928571-0.02589286-93.57857143 0.01517856-140.36785715 0.01160714-13.59821429-3.07410714-26.22053571-11.66785714-37.01428571-9.56696429-12.01428571-21.95357143-18.34821429-37.55803572-18.30892857-39.48214286 0.10178571-78.96964286 0.35089286-118.44732142-0.08303571-24.63660715-0.27053571-44.8625 18.67142857-48.63303572 43.81607142-0.51785715 3.45982143-0.75357143 6.99464285-0.75535714 10.49553572-0.03928572 94.28125-0.04196428 188.5625-0.02142857 282.84375 0.00357142 17.61160714 5.72321428 32.77589286 19.57321428 44.25982143 7.82053571 6.48571429 16.83928572 10.11875 27.05803572 10.13482143 41.16696429 0.06785714 82.33928572 0.35446428 123.50267857-0.09017857 22.25535715-0.24107143 40.52857143-16.76785715 45.35982143-39.84642858 1.11339285-5.31517858 1.49732143-10.86875 1.50982143-16.31428571 0.11339285-46.50714286 0.06428571-93.01607143 0.06428572-139.525zM898.65892857 234.16302909c0.00625-23.74375 0.47500001-47.50089286-0.12767857-71.23125-0.59464285-23.45982143-18.09196428-43.27589286-40.63392857-47.30089286-3.01339285-0.53839286-6.15178571-0.51875-9.23214285-0.52142857-38.78214285-0.03214286-77.57321428 0.49464285-116.34285715-0.19642857-27.39910714-0.48839286-49.62321428 21.59285714-50.08928572 49.1-0.79642858 46.91785715-0.47678572 93.86071428-0.11339285 140.78839286 0.18392857 23.80803572 17.75446428 44.34196428 40.36607143 48.52589285 3.01160714 0.55714286 6.15178571 0.57410714 9.23214286 0.57678572 39.06339285 0.03660715 78.13214285-0.3875 117.18660713 0.16160714 28.19642858 0.39732143 48.66071429-22.88125 49.56160715-47.83214286 0.86428571-23.99285714 0.18660715-48.04285714 0.19285714-72.06964286zM512.40625 6.425529080000047c-124.65803572 0-249.31428571-0.00267857-373.97142858 0.00535715-11.62678572 0-19.79464285 5.43571429-23.57410713 15.58928572-3.85178571 10.34464285-0.89107143 22.34285714 7.15 29.24732142 4.25714286 3.65535715 9.26785715 5.10625 14.74374999 5.31250001 1.12232143 0.04107143 2.24821429 0.01964286 3.37232144 0.01964285l744.99107143-0.00089285c13.71071428 0 22.04642857-5.80625 25.61785714-17.41250001 4.59821429-14.94196428-5.25357143-32.95-24.35892857-32.90624999-124.65625 0.28392857-249.31339285 0.14553572-373.97053572 0.14553571z"  horiz-adv-x="1024" />

    
    <glyph glyph-name="userManagement" unicode="&#59314;" d="M725.18122433 266.60949612s-34.83836746 9.08837557-45.44106673 14.64278841c-18.17675113 12.62233829-29.28476572 34.83836746-29.28476573 58.56872034 0 25.7499919 20.19639016 47.46070575 34.83836746 62.10268307 34.83836746 41.90710401 54.53025341 98.45618534 54.53025341 160.55967951C739.82320164 693.7590923299999 646.91980694 799.28320313 531.80200528 799.28320313S323.78324221 693.25377703 323.78324221 561.97886324c0-62.10349416 21.71071386-118.6525755 54.52944231-160.5596795 20.19639016-12.62233829 34.83836746-36.35350228 34.83836746-62.10349418 0-23.73035288-11.10801458-45.44106675-29.28476571-58.56872034v-2.01963901c-2.01963901 0-3.53396272-2.01963901-5.55360175-2.01963902-11.10801458-7.06873655-23.73035288-11.10720348-38.37314128-11.10720348-89.36699868-29.28476572-164.09364223-76.74628258-208.02038527-136.82932663H133.93879699C122.83159349 112.61404895999999 117.78168486 93.93279360999998 117.78168486 74.24090766999996c0-56.54827023 47.46151686-101.99014806 105.525733-104.00978708h618.00142765c60.08385515 0 107.54456091 45.44187784 107.54456091 104.01059817 0 23.73035288-9.08837557 45.44106675-21.71071387 62.10268308-45.44106675 57.05439663-114.61329746 102.49546337-201.96146822 130.26590538zM1144.25145338 164.11484384000005c-39.887465 48.97502947-100.47582437 91.38663769-176.71679163 114.61248637 0 0-29.28395462 7.06873655-39.88746499 12.62314939-16.15711212 12.62233829-25.7499919 30.79908943-25.74999189 50.9946685 0 23.73116398 18.17675113 41.90710401 30.79908942 54.5302534 30.79908943 36.35269118 48.97584058 87.34735965 48.97584057 142.38211727 0 114.61329746-81.79456902 209.53552007-184.29003238 209.53552007-16.15711212 0-32.81872845-2.01963901-47.46070576-7.06873655 34.83836746-50.99547958 54.53025341-113.09816265 54.53025341-180.25075435 0-72.70619345-25.750803-143.89725208-69.17223072-200.44714451l-2.01963902-2.01963902-2.019639-2.01963901-3.53477383-3.53396273c-3.53396272-5.55360174-12.62233829-12.62233829-14.64197732-18.17675114 0-2.01963901 0-2.01963901 2.01963902-2.01963901 5.55441285-2.01963901 12.62233829-3.53396272 18.17675113-5.55360175h2.01963902l9.08837556-3.53396272C840.8043413 293.37011861999997 921.08377551 240.35418890999995 976.11853313 172.69790409999996c23.73035288-29.28476572 36.35350228-65.63745688 36.35350226-101.99095916 0-20.19639016-3.53477383-38.37233018-11.10882569-56.54908132h67.65709592c53.0151186 0 94.92222261 39.887465 94.92222261 91.38744879 0.50450421 24.23566818-6.56342124 42.41241932-19.69107485 58.56953144z"  horiz-adv-x="1290" />

    
    <glyph glyph-name="search" unicode="&#59315;" d="M878.47589286 95.23779761000003l-112 112c118.09553572 157.71428571 78.47678572 380.95267857-72.38035714 492.95267858-137.90535715 104.38125-334.47678572 91.42857143-459.42857143-33.52410715-137.90535715-137.90446428-137.90535715-361.14285714 0-499.04732142 124.95178571-124.95267857 315.42857143-137.90446428 459.42857143-32.76160715l112-112c19.80892857-19.80982143 52.57142857-19.80982143 72.38035714 0 19.04821429 13.71428571 19.04821429 46.47589286 0 72.38035714zM681.14285714 213.33333332999996C628.57142857 160.76190476 556.19017857 128.00029761999997 477.71428571 128.00029761999997S326.09553572 160.76190476 274.28571429 213.33333332999996c-112 112-112 295.61875 0 406.85714286C385.52410714 732.19047619 569.14285714 732.19047619 681.14285714 620.95208333c112-112 112-295.61875 0-407.61875z"  horiz-adv-x="1024" />

    
    <glyph glyph-name="list" unicode="&#59316;" d="M220.94 550.3199999999999h-79.38c-13.23 0-24.57 17.01-24.57 32.13v71.82c0 13.23 11.34 24.57 24.57 24.57h77.49c13.23 0 24.57-11.34 24.57-24.57v-77.49c1.89-15.12-9.45-26.46-22.68-26.46z m661.5 0H349.46c-13.23 0-24.57 17.01-24.57 32.13v71.82c0 13.23 11.34 24.57 24.57 24.57H880.55c13.23 0 24.57-11.34 24.57-24.57v-77.49c1.89-15.12-9.45-26.46-22.68-26.46z m-661.5-230.58h-79.38c-13.23 0-24.57 17.01-24.57 32.13v71.82c0 13.23 11.34 24.57 24.57 24.57h77.49c13.23 0 24.57-11.34 24.57-24.57v-77.49c1.89-15.12-9.45-26.46-22.68-26.46z m661.5 0H349.46c-13.23 0-24.57 17.01-24.57 32.13v71.82c0 13.23 11.34 24.57 24.57 24.57H880.55c13.23 0 24.57-11.34 24.57-24.57v-77.49c1.89-15.12-9.45-26.46-22.68-26.46z m-661.5-232.47h-79.38c-13.23 0-24.57 17.01-24.57 32.13v71.82c0 13.23 11.34 24.57 24.57 24.57h77.49c13.23 0 24.57-11.34 24.57-24.57v-77.49c1.89-15.12-9.45-26.46-22.68-26.46z m661.5 0H349.46c-13.23 0-24.57 17.01-24.57 32.13v71.82c0 13.23 11.34 24.57 24.57 24.57H880.55c13.23 0 24.57-11.34 24.57-24.57v-77.49c1.89-15.12-9.45-26.46-22.68-26.46z"  horiz-adv-x="1024" />

    
    <glyph glyph-name="enable" unicode="&#59317;" d="M696.55709974 510.01739543c-9.79429871 0.41118968-19.69319131-2.89828844-27.15608444-10.49372038L465.4892571 313.56294141 370.11321137 409.87554152c-7.47247426 7.54433265-17.36018888 10.85381077-27.11456626 10.49451879-8.79866079-0.37046992-17.50550251-3.67994806-24.2482149-10.49451879-6.69081464-6.76347146-9.96995255-15.60365043-10.34042249-24.48454916-0.37046992-9.84699487 2.91904753-19.82732698 10.34042249-27.38203917l121.03108824-122.22393752c7.11398072-7.13234453 16.40527071-10.72047353 25.65584092-10.72047356a36.02340992 36.02340992 0 0 1 25.65504251 10.72047356l229.61949684 211.92317037c7.47327267 7.54353422 10.75161217 17.52466475 10.38114223 27.38203917-0.3696715 8.88089872-3.63763146 17.70989971-10.38114223 24.47337116-6.75389034 6.76347146-15.35533977 10.12564573-24.15479898 10.45379906zM513.24155331 778.40848644c-213.89847771 0-387.32950321-175.14844105-387.32950321-391.16434601 0-215.99434744 173.43102551-391.14278849 387.32950321-391.1427885S900.57025811 171.23781657999996 900.57025811 387.24414043 727.14003102 778.40768802 513.24155331 778.40768802z m0-708.95887937c-173.53402254 0-314.70063041 142.60617097-314.7006304 317.79373493 0 175.19874193 141.1674063 317.80571133 314.69983198 317.80571134 173.52523984 0 314.69184772-142.6069694 314.6918477-317.80571134 0-175.18676552-141.16660787-317.79373493-314.6918477-317.79373493z m0 0"  horiz-adv-x="1024" />

    
    <glyph glyph-name="disable" unicode="&#59318;" d="M784.25966797 663.65371328C711.34804993 736.5661964999999 614.22455597 776.72840813 510.87613983 776.72840813c-103.39340515 0-200.51776428-40.16307678-273.42938232-113.07469485-150.76510621-150.76510621-150.76510621-396.04693909 0-546.81377562 72.91161804-72.91075287 170.03597718-113.07382965 273.42938232-113.07382965 103.34841614 0 200.47277527 40.16307678 273.38352814 113.07382965 150.76597137 150.76683655 150.76597137 396.04780426 0 546.81377562zM263.76965637 192.87050557999999C164.54033051 316.97010429 172.25854187 499.00863119 287.15269623 613.94777458c59.63812867 59.63812867 139.09391784 92.5008728 223.72257842 92.50087279 72.71089782 0 141.54322358-24.42384339 197.34949952-69.12734985L263.76965637 192.87050557999999zM757.94282532 587.59026877c44.69485474-55.79675904 69.11264191-124.62302856 69.11264191-197.34257812 0-84.60530091-32.86274414-164.06195526-92.50087281-223.70094909S595.45894623 74.04586875999996 510.87527465 74.04586875999996c-72.73944855 0-141.57696533 24.42384339-197.37631988 69.11869811l444.44214021 444.4257019z"  horiz-adv-x="1024" />

    
    <glyph glyph-name="edit" unicode="&#59319;" d="M799.91159145 385.4774728c-19.91075003 0-36.10597882-16.59308297-36.10597884-37.03652083l0.19940187-186.96772547c-0.1338841-58.27471749-12.41229074-72.74559501-73.20706788-72.74559501l72.8092137 0.46432146 0.46337193 68.22961775 0.06741681-68.75850744-577.50005754-0.26586913v0.79570836l72.74369593-0.46432147c-54.62376447 0-70.02233538 11.8150347-72.74369593 56.41743164l-0.33233643 495.9950239 0.79665789-33.9818743c0 56.282598 10.35370396 72.21195766 63.45156948 73.73785661l477.60922328 0.2649196c19.91169957 0 36.10597882 16.59213344 36.10597883 37.03557129s-16.12781197 37.03557129-36.10597883 37.03557129l-545.04313267-0.33138689c-38.29655063-1.72530081-68.82782331-33.78342198-69.02722516-73.40741926l0.26491959-596.01689365c1.72530081-39.3600272 33.11969867-70.75252598 71.88057077-70.752526h38.36301793v-0.33233641l539.20350691 0.33233641c39.88891689 0 72.21100812 33.18521641 72.21100812 74.07019305v36.97100307h0.26681868l-0.26681868 222.67585014c-0.00094953 20.44438738-16.12876151 37.03652082-36.10597883 37.03652082zM186.3065046 680.83055158h22.7659947l-22.7659947-0.1338841v0.1338841z m707.4540449-12.47685896c-19.64583042 20.10920236-51.43808245 20.10920236-71.01649606 0L416.61564767 249.87946341999998c-19.64583042-20.11015189-19.64583042-52.76363002 0-72.87568098 19.64677996-20.10920236 51.43903198-20.10920236 71.01744559 0l406.12745624 418.40776193c19.58031268 20.17661917 19.58031268 52.76552909 0 72.94309779z"  horiz-adv-x="1024" />

    
    <glyph glyph-name="download" unicode="&#59320;" d="M863.22630386 430.63582767h-49.55102042c-12.07256236 0-21.85941044-9.78775509-21.85941042-21.86031746v-304.59047619H232.18412698v304.58956915c0 12.07256236-9.78866214 21.86122449-21.86031746 21.8612245h-49.5510204c-12.07256236 0-21.86031746-9.78775509-21.86031747-21.86031746v-376.00181407c0-12.07256236 9.78775509-21.86031746 21.86031747-21.86031746h702.45260771c12.07256236 0 21.86031746 9.78775509 21.86031746 21.86031746V408.77551021c0 12.07256236-9.78775509 21.86031746-21.86031746 21.86031746zM558.63582767 430.63582767V733.76870748c0 12.87709751-10.4399093 23.31791383-23.31791385 23.31791384h-46.63582765c-12.87709751 0-23.31791383-10.4399093-23.31791384-23.31791385v-303.1328798H325.45668934L512 244.09251701000005l186.54331066 186.54331066H558.63582767z"  horiz-adv-x="1024" />

    
    <glyph glyph-name="viewdetails" unicode="&#59321;" d="M755.91610282 596.13187081L605.68120465 746.36598423c-13.07608467 13.07608467-31.0206822 21.09375-50.96871512 21.189488l-332.63462611 1.14571708C169.10571289 767.45894951 126.53683035 724.79432896 126.53683035 671.82060895v-577.361363c0-53.4500558 43.33321708-96.68753487 96.68753488-96.68753487h337.59809222c-17.46747698 13.17182269-32.92994907 28.34786552-46.19750976 45.33743721l0.09573799-0.09573799H222.07864816c-28.53855678 0.095738-51.54157366 23.19370814-51.63731167 51.63731165V671.8213937c0 28.44360351 23.28944616 51.63731165 50.39585658 51.63731166 2.57786342 0 273.45755441 0 343.13441687-1.33640834l5.15337262-3.91348703v-99.45608957c0-32.06987653 26.05721609-58.12709264 58.12787737-58.12709263h100.69754464l3.91270229-3.91348702V429.76590402c15.55821009-1.71779087 30.63851493-4.86772809 45.24169921-9.44824219V545.0674176800001c0 19.94803293-8.11261859 37.98836845-21.18870325 51.06445313zM294.42754255 237.91793387999996c-12.88539342 0-24.5301165-10.30831474-24.53011649-24.5301165 0-12.88539342 10.30831474-24.5301165 24.53090122-24.53011648h169.51354981c0 0.57285853-0.09495326 1.04997907-0.09495327 1.6228376 0 16.2260219 1.62283762 32.06987653 4.7719901 47.43739538H294.42754255z m410.32836914 11.16681778c-29.87496512 0-52.20938547-24.52933175-52.20938546-57.26780482s22.43015834-57.26858956 52.20938546-57.26858956c29.87496512 0 52.20938547 24.5301165 52.20938546 57.26858956 1.33640834 31.40206473-22.33363561 57.26780483-52.20860072 57.26780483zM704.75591169 334.98763601999997c-87.04781669 0-162.92881557-60.03635952-192.70804269-144.60283551 29.87496512-84.56647601 104.41955566-144.60283551 192.70804269-144.60283553s162.92881557 61.37276786 192.70804269 145.93924387c-29.77922712 83.32580565-104.32303293 143.26642718-192.70804269 143.26642717z m0-240.04970006c-48.48737445 0-87.04781669 42.283238-87.04781669 95.44764928s38.56044224 95.44686454 87.04781669 95.44686454c48.48737445 0 87.04781669-42.283238 87.04781669-95.44764927 1.33640834-53.16362653-37.2240339-95.44764928-87.04781669-95.44764929zM633.74421038 479.39978028c-1.33640834 12.88539342-11.64550781 24.5301165-25.86652483 24.53011649H294.42754255c-12.88539342 0-24.5301165-10.30831474-24.53011649-24.53090123 0-12.88539342 10.30831474-24.52933175 24.53090122-24.52933176H609.21330916c12.88539342 0 24.5301165 10.30831474 24.53011649 24.5301165zM545.74058315 370.97178432h-251.31225587c-12.88539342 0-24.53090123-10.30831474-24.53090122-24.53090123 0-14.22101702 10.30831474-24.52933175 24.53090122-24.52933175h208.64763533c0-0.095738 20.3302002 32.16639928 42.66462053 49.06023298z"  horiz-adv-x="1024" />

    
    <glyph glyph-name="detailslist" unicode="&#59322;" d="M790.85158863 7.635119170000053H231.02781937c-28.09680079 0-50.89337341 22.79573807-50.89337339 50.89337341V720.13817408c0 28.09763534 22.79657262 50.89337341 50.89337339 50.89337341h407.14448358l203.57182453-203.57182452v-508.93123039c0-28.09763534-22.79573807-50.89337341-50.89253885-50.89337341zM638.17230295 516.56634957c-28.09680079 0-50.89337341 22.79573807-50.89337339 50.89253885V720.13817408H281.92119278c-28.09763534 0-50.89337341-22.79573807-50.89337341-50.8933734v-559.8229347c0-28.09763534 22.79573807-50.89337341 50.89337341-50.8933734H739.95738068c28.09763534 0 50.89337341 22.79573807 50.89337339 50.8933734v407.14364903H638.17230295zM281.92119278 262.10031709H739.95738068v-50.89253885H281.92119278v50.89253885z m0 152.67928567H739.95738068v-50.89253886H281.92119278V414.77876821z m0 152.67928566h203.57182452v-50.89253885h-203.57182452v50.89253885z"  horiz-adv-x="1024" />

    
    <glyph glyph-name="exit" unicode="&#59323;" d="M905.028 398.676l-155.181 155.18c-7.606 7.607-19.939 7.608-27.548 0l-31.369-31.369c-7.606-7.606-7.606-19.94 0-27.547l68.451-68.45H447.375c-10.758 0-19.478-8.722-19.478-19.48v-44.362c0-10.758 8.722-19.48 19.478-19.48h311.859l-68.453-68.45c-7.606-7.607-7.606-19.942 0-27.548l31.368-31.368c7.608-7.608 19.943-7.608 27.549-0.002l123.958 123.958 0.003 0.002 31.37 31.37c7.605 7.604 7.605 19.939-0.001 27.545v0.001zM601.896 760.095h-419.58c-32.276 0-58.44-26.165-58.44-58.438v-633.659c0-32.273 26.163-58.437 58.44-58.437h419.58c32.274 0 58.437 26.164 58.437 58.437v82.218c0 10.758-8.72 19.48-19.48 19.48h-42.22c-10.758 0-19.48-8.722-19.48-19.48v-31.275c-0.213-15.951-13.205-28.82-29.208-28.82H233.456c-16.137 0-29.22 13.082-29.22 29.22V650.9929999999999c0 16.137 13.083 29.22 29.22 29.22h316.49c16.004 0 28.996-12.868 29.21-28.822v-32.197c0-10.76 8.72-19.48 19.479-19.48h42.222c10.758 0 19.479 8.72 19.479 19.48v82.464c0 32.272-26.165 58.437-58.439 58.437z"  horiz-adv-x="1024" />

    
    <glyph glyph-name="run" unicode="&#59324;" d="M728.33378684 10.818140579999977H297.84399093c-89.1755102 0-161.79773243 72.56598639-161.79773243 161.79863946V603.04671201C136.0462585 692.2240362800001 208.66848073 764.84353741 297.84399093 764.84353741h430.49070294c89.1755102 0 161.79863945-72.62040817 161.79863945-161.79773243v-430.42993197c-0.00090703-89.23265306-72.62403628-161.79773243-161.79954648-161.79773243zM297.84399093 687.26802721c-46.39455783 0-84.16417233-37.82494331-84.16417233-84.2213152V172.61678003999998c0-46.45170068 37.76961452-84.2213152 84.16417233-84.2213152h430.49070294c46.39365079 0 84.16417233 37.76961452 84.16417233 84.2213152V603.04671201c0 46.39546485-37.77052154 84.2213152-84.16417233 84.2213152H297.84399093zM414.41451248 187.42131518999997a38.74920635 38.74920635 0 0 0-18.30204083 4.60408164c-12.59138321 6.76099774-20.45714286 19.8739229-20.45714285 34.15510204V549.42494331c0 14.33922903 7.86575963 27.51111111 20.45714285 34.27210885 12.5877551 6.7600907 27.97641724 5.9446712 39.8675737-1.98185942l242.34739229-161.56553289c10.83990929-7.22721088 17.30884354-19.35147392 17.30884354-32.29024943 0-12.9968254-6.46893425-25.1201814-17.30884354-32.29024943L435.97913833 193.89024943000004c-6.52789116-4.31383221-13.98820862-6.46893425-21.56462586-6.46893424z m38.8154195 289.49750567v-178.23673469l133.70702947 89.17732425-133.70702947 89.05941044z"  horiz-adv-x="1024" />

    
    <glyph glyph-name="time" unicode="&#59325;" d="M511.65986395 764.35714287c-210.03401361 0-380.0170068-170.40816327-380.01700682-380.35714287s170.06802722-380.35714287 380.01700682-380.35714287c210.37414966 0 380.78231293 170.40816327 380.78231291 380.35714287S721.9489796 764.35714287 511.65986395 764.35714287z m0.34013605-684.69387756c-168.11224491 0-304.3367347 136.13945579-304.3367347 304.33673469S343.88775509 688.3367347 512 688.3367347 816.3367347 552.1122449100001 816.3367347 384 680.11224491 79.66326530000003 512 79.66326530000003z m19.04761905 494.55782313h-57.05782313v-228.23129251l199.65986396-119.81292518 28.57142855 46.76870749-171.17346938 101.53061223V574.22108844z"  horiz-adv-x="1024" />

    
    <glyph glyph-name="type" unicode="&#59326;" d="M417.98449707 418.52453614c33.28857422 0 59.4909668 26.20239258 59.4909668 59.49096679V596.91503906C477.47546386 695.7095947299999 397.79711914 775.38793945 299.08496094 775.38793945 200.29040527 775.38793945 120.61206055 695.7095947299999 120.61206055 596.91503906c0-98.7121582 79.67834473-178.47290039 178.47290039-178.47290039h118.89953613z m188.03100586 0h118.98193359c98.7121582 0 178.47290039 79.67834473 178.4729004 178.47290038C903.38793945 695.7095947299999 823.70959473 775.38793945 724.91503906 775.38793945c-98.7121582 0-178.47290039-79.67834473-178.47290039-178.47290039V477.93310547c0.08239747-33.28857422 27.4383545-59.40856934 59.57336426-59.40856934z m-188.03100586-69.04907228H299.08496094C200.29040527 349.47546386 120.61206055 269.79711913999995 120.61206055 171.08496093999997S200.29040527-7.387939449999976 299.08496094-7.387939449999976c98.7121582 0 178.47290039 79.67834473 178.47290039 178.47290039V289.98449707c-0.08239747 32.13500977-26.20239258 59.4909668-59.57336426 59.4909668z m188.03100586 0c-33.28857422 0-59.4909668-26.20239258-59.4909668-59.49096679v-118.9819336c0-98.7121582 79.67834473-178.47290039 178.4729004-178.47290038C823.70959473-7.387939449999976 903.38793945 72.29040526999995 903.38793945 171.08496093999997s-79.67834473 178.47290039-178.47290039 178.47290039H606.01550293z m0 0M606.01550293 349.47546386c-33.28857422 0-59.4909668-26.20239258-59.4909668-59.49096679v-118.98193359c0-98.7121582 79.67834473-178.47290039 178.4729004-178.4729004C823.70959473-7.387939449999976 903.38793945 72.29040526999995 903.38793945 171.08496093999997s-79.67834473 178.47290039-178.47290039 178.47290039H606.01550293z m0 0"  horiz-adv-x="1024" />

    
    <glyph glyph-name="typeline" unicode="&#59327;" d="M109.63781654 168.56921695999995a186.95420085 186.95420085 0 0 1 373.90840171 0v186.95420085H296.5472182A186.90940164 186.90940164 0 0 1 109.59301732 168.56921695999995z m306.0383758 0A119.21857259 119.21857259 0 0 0 296.5472182 49.44024278999996 119.30738507 119.30738507 0 0 0 177.41824401 168.56921695999995 119.30738507 119.30738507 0 0 0 296.5472182 287.69897707999996h119.12897415v-119.12976012z m498.61920098 430.88357272a186.95420085 186.95420085 0 0 1-373.86360249 0v-186.95420085h186.90940163a186.90940164 186.90940164 0 0 1 186.95420086 186.95420085z m-306.03837582 0A119.21857259 119.21857259 0 0 0 727.34119246 718.58176384 119.30738507 119.30738507 0 0 0 846.47016665 599.45278968a119.21857259 119.21857259 0 0 0-119.12897419-119.12897417H608.25701751V599.45278968zM296.5472182 412.49858883h186.95420085V599.45278968a186.95420085 186.95420085 0 1 1-186.95420086-186.95420085z m-1e-8 306.08317501A119.21857259 119.21857259 0 0 0 415.67619235 599.45278968v-119.12897417H296.5472182A119.21857259 119.21857259 0 0 0 177.41824401 599.45278968 119.30738507 119.30738507 0 0 0 296.5472182 718.58176384z m430.88357271-363.01354682h-186.95420086v-186.99900006a186.95420085 186.95420085 0 1 1 186.95420086 186.95420085z m0-306.12797423a119.21857259 119.21857259 0 0 0-119.12976013 119.12897417V287.69897707999996h119.12976013a119.21857259 119.21857259 0 0 0 119.12897416-119.12976012 119.30738507 119.30738507 0 0 0-119.12897416-119.12897417z"  horiz-adv-x="1025" />

    
    <glyph glyph-name="verifyCode" unicode="&#59328;" d="M198.72265625 125.84765625a45.703125 45.703125 0 0 0-45.703125 45.703125V595.93066406a45.703125 45.703125 0 0 0 45.703125 45.703125h474.92578125a35.15625 35.15625 0 0 1 0 70.3125H198.72265625c-63.95800781 0-116.015625-52.03125-116.015625-116.015625v-424.39746094c0-63.95800781 52.03125-116.015625 116.015625-116.015625a35.15625 35.15625 0 1 1 0 70.3125z m352.37109375 231.51269531a26.3671875 26.3671875 0 0 1 26.3671875 26.3671875v76.81640625a26.3671875 26.3671875 0 0 1-26.3671875 26.3671875H448.67480469a26.3671875 26.3671875 0 0 1 0-52.734375h76.05175781v-24.08203125h-76.05175781a26.3671875 26.3671875 0 0 1-26.3671875-26.3671875v-76.81640625a26.3671875 26.3671875 0 0 1 26.3671875-26.3671875h102.41894531a26.3671875 26.3671875 0 0 1 0 52.734375h-76.05175781v24.08203125z m138.70019531-24.08203125a26.3671875 26.3671875 0 0 1 0-52.734375h102.41894532a26.3671875 26.3671875 0 0 1 26.36718749 26.3671875v153.6328125a26.3671875 26.3671875 0 0 1-26.3671875 26.3671875H689.78515625a26.3671875 26.3671875 0 0 1 0-52.734375h76.05175781v-24.08203125h-76.05175781a26.3671875 26.3671875 0 0 1 0-52.734375h76.05175781v-24.08203125z m135.43066407 378.65039063a35.15625 35.15625 0 0 1-1e-8-70.3125 45.703125 45.703125 0 0 0 45.703125-45.703125v-424.37988282a45.703125 45.703125 0 0 0-45.703125-45.703125H350.28125a35.15625 35.15625 0 1 1 0-70.3125h474.94335938c63.95800781 0 116.015625 52.03125 116.01562499 116.015625V595.93066406c-0.02636719 63.95800781-52.05761719 115.99804688-116.015625 115.99804688z m-524.84765625-229.39453125a26.3671875 26.3671875 0 0 1-24.80273438 2.31152343l-54.05273437-22.76367187a26.3671875 26.3671875 0 0 1 20.4609375-48.60351563l17.45507812 7.34765625v-113.91503906a26.3671875 26.3671875 0 0 1 52.734375 0v153.6328125a26.3671875 26.3671875 0 0 1-11.79492187 21.97265625z"  horiz-adv-x="1024" />

    
    <glyph glyph-name="keyboard" unicode="&#59329;" d="M810.11501562 748.49929688H214.55435938c-78.51670313 0-142.41642187-63.88790625-142.41642188-142.41642188V165.87234375000003c0-78.51571875 63.89971875-142.41642187 142.41642188-142.41642187h595.56065625c78.51670313 0 142.41740625 63.90070313 142.41740625 142.41642187V606.08189062c0 78.5295-63.89971875 142.41740625-142.41740625 142.41740626zM874.85046875 165.87234375000003c0-35.70525-29.02921875-64.73545313-64.73545313-64.73545313H214.55435938c-35.70525 0-64.73545313 29.03020312-64.73545313 64.73545313V606.08189062c0 35.6934375 29.02921875 64.73545313 64.73545313 64.73545313h595.56065625c35.70623438 0 64.73545313-29.04201563 64.73545312-64.73545312V165.87234375000003zM279.2898125 515.4534375000001h77.68195313c14.3128125 0 25.89398437 11.59495312 25.89398437 25.89496875 0 14.29903125-11.58117188 25.89398437-25.89398437 25.89398437h-77.68195313c-14.3128125 0-25.89398437-11.59495312-25.89398437-25.89398437 0-14.30001562 11.58117188-25.89496875 25.89398437-25.89496875zM473.49420313 515.4534375000001h77.68195312c14.3128125 0 25.89496875 11.59495312 25.89496875 25.89496875 0 14.29903125-11.58117188 25.89398437-25.89496875 25.89398437h-77.68195313c-14.3128125 0-25.89398437-11.59495312-25.89398437-25.89398437 0-14.30001562 11.58117188-25.89496875 25.89398437-25.89496875zM745.38153125 567.24140625H667.69859375c-14.31182812 0-25.89398437-11.59396875-25.89398437-25.893 0-14.30001562 11.58117188-25.89496875 25.89398437-25.89496875h77.6829375c14.31182812 0 25.89398437 11.59495312 25.89398437 25.89496875 0 14.29903125-11.58215625 25.89398437-25.89398437 25.89398438zM279.2898125 411.8775h77.68195313c14.3128125 0 25.89398437 11.59396875 25.89398437 25.89398437s-11.58117188 25.89398437-25.89398437 25.89398438h-77.68195313c-14.3128125 0-25.89398437-11.59396875-25.89398437-25.89398437s11.58117188-25.89398437 25.89398437-25.89398438zM473.49420313 411.8775h77.68195312c14.3128125 0 25.89496875 11.59396875 25.89496875 25.89398437s-11.58117188 25.89398437-25.89496875 25.89398438h-77.68195313c-14.3128125 0-25.89398437-11.59396875-25.89398437-25.89398437s11.58117188-25.89398437 25.89398437-25.89398438zM745.38153125 463.66546875H667.69859375c-14.31182812 0-25.89398437-11.59396875-25.89398437-25.89398437s11.58117188-25.89398437 25.89398437-25.89398438h77.6829375c14.31182812 0 25.89398437 11.59396875 25.89398437 25.89398437s-11.58215625 25.89398437-25.89398437 25.89398438zM382.86476562 334.19653125c0 14.30001562-11.58117188 25.89398437-25.89398437 25.89398437h-77.68195313c-14.3128125 0-25.89398437-11.59396875-25.89398437-25.89398437s11.58117188-25.89398437 25.89398437-25.89398437h77.68195313c14.3128125 0 25.89398437 11.59396875 25.89398437 25.89398437zM473.49420313 308.30156250000005h77.68195312c14.3128125 0 25.89496875 11.59495312 25.89496875 25.89496875s-11.58117188 25.89398437-25.89496875 25.89398437h-77.68195313c-14.3128125 0-25.89398437-11.59396875-25.89398437-25.89398437s11.58117188-25.89398437 25.89398437-25.89398438zM628.85810937 230.60779687000002H395.81225c-14.3128125 0-25.89398437-11.58117188-25.89398437-25.89398437s11.58117188-25.89398437 25.89398437-25.89398437h233.04585937c14.3128125 0 25.89398437 11.58117188 25.89398438 25.89398437 0 14.31182812-11.58117188 25.89398437-25.89398437 25.89398438zM745.38153125 360.08953125000005H667.69859375c-14.31182812 0-25.89398437-11.59396875-25.89398437-25.89398437S653.38578125 308.30156250000005 667.69859375 308.30156250000005h77.6829375c14.31182812 0 25.89398437 11.59396875 25.89398437 25.89398437s-11.58215625 25.89398437-25.89398437 25.89398438z"  horiz-adv-x="1024" />

    
    <glyph glyph-name="Set" unicode="&#59330;" d="M748.958 14.344000000000051H275.042L85.473 388.74l189.568 374.394h473.916L938.525 388.74 748.957 14.344000000000051z m-431.264 71.088h388.612L857.96 388.74 706.306 692.046H317.694L166.04 388.74l151.654-303.308zM512 251.303c-71.087 0-132.697 56.87-132.697 132.697 0 71.087 56.87 132.697 132.697 132.697S644.697 459.827 644.697 384c0-71.087-61.61-132.697-132.697-132.697z m0 194.306c-33.174 0-56.87-28.435-56.87-56.87s28.435-61.61 56.87-61.61 56.87 28.436 56.87 61.61-23.696 56.87-56.87 56.87z"  horiz-adv-x="1024" />

    
    <glyph glyph-name="password" unicode="&#59331;" d="M391.02734375 538.45019531c0 44.70996094 11.78261719 148.68896484 120.96386719 148.68896485 105.25429687 0 120.965625-93.15527344 120.965625-148.68896485v-32.74980468h90.72333984V538.45019531c0 145.44140625-83.10410156 239.40878906-211.68808594 239.40878906S300.303125 683.89160156 300.303125 538.45019531v-32.74980468H391.02734375V538.45019531zM723.68808594 475.45458984H300.31191406c-50.08710938 0-90.72421875-40.63623047-90.72421875-90.71982422v-302.39912109c0-50.08623047 40.63710937-90.71982422 90.72421875-90.71982422h423.37617188c50.08798828 0 90.72421875 40.63359375 90.72421875 90.71982422V384.73476562c0 50.08359375-40.63623047 90.71982422-90.72421875 90.71982422zM542.24052734 211.68164062000005v-68.86582031c0-16.65527344-13.58525391-30.24052734-30.24140625-30.24052734-16.65703125 0-30.24140625 13.58349609-30.24140625 30.24052734V211.68164062000005c-18.01582031 10.48359375-30.24140625 29.76767578-30.24140625 52.09453126 0 33.39931641 27.07910156 60.47929688 60.4819336 60.47929687 33.40019531 0 60.48193359-27.07910156 60.48193359-60.47929687 0.00175781-22.32685547-12.22558594-41.6109375-30.23964844-52.09453125z"  horiz-adv-x="1024" />

    
    <glyph glyph-name="user" unicode="&#59332;" d="M503.646875 783.84270833c110.64375 0 200.334375-88.228125 200.334375-197.04375 0-108.84375-89.690625-197.071875-200.334375-197.071875S303.3125 477.95520833 303.3125 586.79895833c0 108.84375 89.71875 197.04375 200.334375 197.04375z m0 0c110.64375 0 200.334375-88.228125 200.334375-197.04375 0-108.84375-89.690625-197.071875-200.334375-197.071875S303.3125 477.95520833 303.3125 586.79895833c0 108.84375 89.71875 197.04375 200.334375 197.04375z m-75.121875-459.815625h166.978125c142.93125 0 258.778125-113.934375 258.778125-254.53125v-16.396875c0-55.40625-115.875-57.515625-258.778125-57.515625H428.525c-142.93125 0-258.778125 0.084375-258.778125 57.515625v16.396875c0 140.596875 115.846875 254.53125 258.778125 254.53125z m0 0"  horiz-adv-x="1024" />

    
    <glyph glyph-name="model" unicode="&#59333;" d="M959.9 332.9c1.5 34-30.9 46.4-30.9 46.4L749.7 455s0.5 131.5 0 166.9c-0.5 35.7-32.5 47.9-32.5 47.9s-141.8 56.5-183.9 77.3c-21.9 10.8-44.8 0-44.8 0s-133.4-59-174.6-75.7c-37.7-15.2-37.1-47.9-37.1-47.9v-167.4s-117.6-50.8-166.9-70.2C62.7 367.29999999999995 64 328.29999999999995 64 328.29999999999995s0.5-133.6 0-168.5c-0.5-37.6 33.5-49.5 33.5-49.5s113.9-57.6 168.5-82.4c40.3-18.3 66.5-0.5 66.5-0.5l179 88.1s141.5-66.7 174.9-87.6c38.6-24.2 64.9-4.1 64.9-4.1s157.8 80 182.4 91.2c26.3 12 26.3 41.7 26.3 41.7s-1.6 142.2-0.1 176.2m-658.4-66.4l-163.8 71.9 163.8 71.9 166.9-71.1-166.9-72.7m183.9-106.7L327.8 81V221.70000000000005l157.6 68v-129.9m25.9 386.4L334 622l177.4 78.3L695.6 622l-184.3-75.8m28.2-46.3l156.1 68v-114.4L539.5 384V499.9m186.3-233.4l-163.1 71.9 156.1 71.9 170-71.9-163-71.9m180.1-111.3L751.3 81V221.70000000000005l154.6 68v-134.5m0 0"  horiz-adv-x="1024" />

    


  </font>
</defs>
</svg>
